<?xml version="1.0" encoding="UTF-8"?>
<svg id="a" xmlns="http://www.w3.org/2000/svg" version="1.1" viewBox="0 0 204.9 204.9">
  <!-- Generator: Adobe Illustrator 29.4.0, SVG Export Plug-In . SVG Version: 2.1.0 Build 152)  -->
  <defs>
    <style>
      .st0 {
        stroke: #0d28a6;
      }

      .st0, .st1 {
        fill: none;
        stroke-miterlimit: 10;
        stroke-width: 5.9px;
      }

      .st2 {
        fill: #ff92fc;
      }

      .st3 {
        fill: #ff5ffb;
      }

      .st1 {
        stroke: #14279f;
      }
    </style>
  </defs>
  <g id="b">
    <g>
      <g id="c">
        <path class="st2" d="M134.2,75.6l15.4-2.9-1.3-2.2,32-6.5,4.2-4.2c2.3-2.3,2.3-6.1,0-8.4-2.3-2.3-6.1-2.3-8.4,0s-5.9,2.3-8.2,0-2.3-5.9,0-8.2,2.3-5.9,0-8.2c-2.3-2.2-5.9-2.2-8.2,0-2.3,2.3-5.9,2.3-8.2,0s-2.3-5.9,0-8.2c2.3-2.3,2.3-5.9,0-8.2-2.3-2.2-5.9-2.2-8.2,0l-4.2,4.2-5.8,32.2-2.7-1.7-2.5,12"/>
        <path class="st2" d="M69.4,126.5l-15.4,2.9,2,2.7-32,6.5-4.2,4.2c-2.3,2.3-2.2,6.1,0,8.2,2.3,2.3,6.1,2.2,8.2,0h0c2.2-2.3,5.8-2.5,8.2-.3,2.3,2.2,2.5,5.8.3,8.2l-.3.3c-2.3,2.3-2.3,6.1,0,8.4s6.1,2.3,8.4,0,5.9-2.3,8.2,0,2.3,5.9,0,8.2c-2.3,2.2-2.5,5.9-.1,8.2h.1c2.3,2.3,5.9,2.3,8.2.1l4.2-4.2,5.8-32.5,2.7,1.6,2.5-12"/>
        <circle class="st2" cx="102" cy="101.4" r="43.4"/>
        <path class="st3" d="M145.6,101.4c0-15.4-8.2-29.6-21.4-37.4,12.3,20.6,5.3,47.2-15.3,59.5-13.6,8.1-30.6,8.1-44.2,0,12.1,20.6,38.8,27.6,59.5,15.4,13.3-7.8,21.4-22.1,21.4-37.4,0,0,0-.1,0-.1Z"/>
      </g>
      <g id="d">
        <circle class="st0" cx="102" cy="101.3" r="43.4"/>
        <path class="st1" d="M148.3,70.5l32-6.4,4.2-4.2c2.3-2.3,2.2-6.1,0-8.2-2.3-2.3-6.1-2.2-8.2,0-2.2,2.3-5.9,2.5-8.2.1h-.1c-2.3-2.5-2.5-6.1-.1-8.4h.1c2.3-2.3,2.5-5.9.3-8.4s-5.8-2.5-8.2-.3l-.3.3c-2.3,2.3-5.9,2.3-8.2,0s-2.3-5.9,0-8.2c1.4-2.9.4-6.4-2.5-7.8s-3.6-.9-5.3,0l-4.2,4.2-6.4,31.9"/>
        <path class="st1" d="M55.8,132.1l-32,6.4-4.2,4.2c-2.2,2.3-2.2,5.9,0,8.2s5.9,2.5,8.2.1h.1c2.3-2.5,6.1-2.5,8.4-.1s2.3,6.1,0,8.4-2.2,6.1,0,8.2c2.3,2.3,6.1,2.2,8.2,0,2.2-2.3,5.9-2.5,8.2-.1h.1c2.3,2.5,2.5,6.1.1,8.4h-.1c-2.3,2.5-2.3,6.1,0,8.4s5.9,2.3,8.2,0l4.2-4.2,5.6-32.6"/>
        <circle class="st1" cx="102" cy="101.3" r="43.4"/>
      </g>
    </g>
  </g>
</svg>