<?xml version="1.0" encoding="UTF-8"?>
<svg id="Layer_1" xmlns="http://www.w3.org/2000/svg" version="1.1" viewBox="0 0 204.9 204.9">
  <!-- Generator: Adobe Illustrator 29.4.0, SVG Export Plug-In . SVG Version: 2.1.0 Build 152)  -->
  <defs>
    <style>
      .st0 {
        stroke: #0d28a6;
      }

      .st0, .st1, .st2, .st3 {
        fill: none;
        stroke-miterlimit: 10;
        stroke-width: 4.1px;
      }

      .st4 {
        fill: #ff92fc;
      }

      .st5 {
        fill: #bebebe;
      }

      .st6 {
        fill: #a0a0a0;
      }

      .st1 {
        stroke: #2f2f2f;
      }

      .st7 {
        opacity: .4;
      }

      .st2 {
        stroke: #2e2e2e;
      }

      .st8 {
        fill: #ff5ffb;
      }

      .st3 {
        stroke: #14279f;
      }
    </style>
  </defs>
  <g id="Layer_2">
    <g class="st7">
      <g id="color">
        <path class="st5" d="M124.3,83.7l10.7-2-.9-1.5,22.2-4.5,2.9-2.9c1.6-1.6,1.6-4.2,0-5.8-1.6-1.6-4.2-1.6-5.8,0-1.6,1.6-4.1,1.6-5.7,0s-1.6-4.1,0-5.7,1.6-4.1,0-5.7c-1.6-1.5-4.1-1.5-5.7,0-1.6,1.6-4.1,1.6-5.7,0s-1.6-4.1,0-5.7c1.6-1.6,1.6-4.1,0-5.7-1.6-1.5-4.1-1.5-5.7,0l-2.9,2.9-4,22.3-1.9-1.2-1.7,8.3"/>
        <path class="st5" d="M79.4,119l-10.7,2,1.4,1.9-22.2,4.5-2.9,2.9c-1.6,1.6-1.5,4.2,0,5.7,1.6,1.6,4.2,1.5,5.7,0h0c1.5-1.6,4-1.7,5.7-.2,1.6,1.5,1.7,4,.2,5.7l-.2.2c-1.6,1.6-1.6,4.2,0,5.8s4.2,1.6,5.8,0,4.1-1.6,5.7,0c1.6,1.6,1.6,4.1,0,5.7-1.6,1.5-1.7,4.1-.1,5.7h.1c1.6,1.6,4.1,1.6,5.7,0l2.9-2.9,4-22.5,1.9,1.1,1.7-8.3"/>
        <circle class="st5" cx="102" cy="101.6" r="30.1"/>
        <path class="st6" d="M132.2,101.6c0-10.7-5.7-20.5-14.8-25.9,8.5,14.3,3.7,32.7-10.6,41.2-9.4,5.6-21.2,5.6-30.6,0,8.4,14.3,26.9,19.1,41.2,10.7,9.2-5.4,14.8-15.3,14.8-25.9h0Z"/>
      </g>
      <g id="line">
        <circle class="st2" cx="102" cy="101.5" r="30.1"/>
        <path class="st1" d="M134.1,80.2l22.2-4.4,2.9-2.9c1.6-1.6,1.5-4.2,0-5.7-1.6-1.6-4.2-1.5-5.7,0-1.5,1.6-4.1,1.7-5.7.1h0c-1.6-1.7-1.7-4.2,0-5.8h0c1.6-1.6,1.7-4.1.2-5.8s-4-1.7-5.7-.2l-.2.2c-1.6,1.6-4.1,1.6-5.7,0s-1.6-4.1,0-5.7c1-2,.3-4.4-1.7-5.4-1.2-.6-2.5-.6-3.7,0l-2.9,2.9-4.4,22.1"/>
        <path class="st1" d="M70,122.9l-22.2,4.4-2.9,2.9c-1.5,1.6-1.5,4.1,0,5.7s4.1,1.7,5.7,0h.1c1.6-1.7,4.2-1.7,5.8,0s1.6,4.2,0,5.8c-1.6,1.6-1.5,4.2,0,5.7,1.6,1.6,4.2,1.5,5.7,0,1.5-1.6,4.1-1.7,5.7,0h.1c1.6,1.7,1.7,4.2.1,5.8h-.1c-1.6,1.7-1.6,4.2,0,5.8s4.1,1.6,5.7,0l2.9-2.9,3.9-22.6"/>
        <circle class="st1" cx="102" cy="101.5" r="30.1"/>
      </g>
    </g>
    <g>
      <g id="color1" data-name="color">
        <path class="st4" d="M-102.4,83.7l10.7-2-.9-1.5,22.2-4.5,2.9-2.9c1.6-1.6,1.6-4.2,0-5.8-1.6-1.6-4.2-1.6-5.8,0-1.6,1.6-4.1,1.6-5.7,0s-1.6-4.1,0-5.7,1.6-4.1,0-5.7c-1.6-1.5-4.1-1.5-5.7,0-1.6,1.6-4.1,1.6-5.7,0s-1.6-4.1,0-5.7c1.6-1.6,1.6-4.1,0-5.7-1.6-1.5-4.1-1.5-5.7,0l-2.9,2.9-4,22.3-1.9-1.2-1.7,8.3"/>
        <path class="st4" d="M-147.3,119l-10.7,2,1.4,1.9-22.2,4.5-2.9,2.9c-1.6,1.6-1.5,4.2,0,5.7,1.6,1.6,4.2,1.5,5.7,0h0c1.5-1.6,4-1.7,5.7-.2,1.6,1.5,1.7,4,.2,5.7l-.2.2c-1.6,1.6-1.6,4.2,0,5.8s4.2,1.6,5.8,0,4.1-1.6,5.7,0c1.6,1.6,1.6,4.1,0,5.7-1.6,1.5-1.7,4.1-.1,5.7h.1c1.6,1.6,4.1,1.6,5.7,0l2.9-2.9,4-22.5,1.9,1.1,1.7-8.3"/>
        <circle class="st4" cx="-124.7" cy="101.6" r="30.1"/>
        <path class="st8" d="M-94.5,101.6c0-10.7-5.7-20.5-14.8-25.9,8.5,14.3,3.7,32.7-10.6,41.2-9.4,5.6-21.2,5.6-30.6,0,8.4,14.3,26.9,19.1,41.2,10.7,9.2-5.4,14.8-15.3,14.8-25.9h0Z"/>
      </g>
      <g id="line1" data-name="line">
        <circle class="st0" cx="-124.7" cy="101.5" r="30.1"/>
        <path class="st3" d="M-92.6,80.2l22.2-4.4,2.9-2.9c1.6-1.6,1.5-4.2,0-5.7-1.6-1.6-4.2-1.5-5.7,0-1.5,1.6-4.1,1.7-5.7.1h0c-1.6-1.7-1.7-4.2,0-5.8h0c1.6-1.6,1.7-4.1.2-5.8s-4-1.7-5.7-.2l-.2.2c-1.6,1.6-4.1,1.6-5.7,0s-1.6-4.1,0-5.7c1-2,.3-4.4-1.7-5.4-1.2-.6-2.5-.6-3.7,0l-2.9,2.9-4.4,22.1"/>
        <path class="st3" d="M-156.7,122.9l-22.2,4.4-2.9,2.9c-1.5,1.6-1.5,4.1,0,5.7s4.1,1.7,5.7,0h.1c1.6-1.7,4.2-1.7,5.8,0s1.6,4.2,0,5.8c-1.6,1.6-1.5,4.2,0,5.7,1.6,1.6,4.2,1.5,5.7,0,1.5-1.6,4.1-1.7,5.7,0h.1c1.6,1.7,1.7,4.2.1,5.8h-.1c-1.6,1.7-1.6,4.2,0,5.8s4.1,1.6,5.7,0l2.9-2.9,3.9-22.6"/>
        <circle class="st3" cx="-124.7" cy="101.5" r="30.1"/>
      </g>
    </g>
  </g>
</svg>