<?xml version="1.0" encoding="UTF-8"?>
<svg id="Layer_2" xmlns="http://www.w3.org/2000/svg" version="1.1" viewBox="0 0 40 40">
  <!-- Generator: Adobe Illustrator 29.4.0, SVG Export Plug-In . SVG Version: 2.1.0 Build 152)  -->
  <defs>
    <style>
      .st0 {
        fill: #6516dc;
      }

      .st1 {
        fill: #fff;
      }
    </style>
  </defs>
  <rect class="st1" x="9.7" y="13.5" width="21.2" height="15.2"/>
  <g id="color">
    <path class="st0" d="M11.9,30.6c-1.9,0-3.6-1.4-3.7-3.3v-12.4c0-1.1.5-2.2,1.3-2.9.9-.8,2-1.2,3.2-1.1h5.3v-2.5c.1-1.1,1.1-2,2.3-1.9,1,0,1.8.9,1.9,1.9v2.5h5.3c2.4-.1,4.4,1.7,4.5,4.1v12.4c-.1,1.9-1.8,3.4-3.7,3.3H11.9ZM26.1,25.4v-.6h-2.4v.6h2.4ZM21.2,25.4v-.6h-2.4v.6h2.4ZM16.3,25.4v-.6h-2.3v.6h2.3ZM24.9,17.2c-.8,0-1.5.6-1.6,1.4.1.9,1,1.5,1.8,1.4.7-.1,1.3-.7,1.4-1.4,0-.8-.8-1.4-1.6-1.4ZM15.1,17.2c-.8,0-1.5.6-1.6,1.4,0,.8.8,1.4,1.6,1.4.8,0,1.5-.6,1.6-1.4,0-.8-.8-1.4-1.6-1.4ZM32.6,26.3v-9.6h2.1c1.1,0,2,.8,2.1,1.9v5.8c0,.5-.2,1-.6,1.3-.4.3-.9.5-1.4.5h-2.1ZM5.3,26.3h0c-1.1,0-2-.8-2.1-1.9v-5.8c0-.5.2-1,.6-1.4.4-.3.9-.5,1.4-.5h2.1v9.6h-2.1Z"/>
    <path class="st1" d="M20,7c.9,0,1.6.6,1.6,1.5v2.9h5.7c2.1-.1,3.9,1.5,4.1,3.6h0v12.4c-.1,1.7-1.6,3-3.3,2.9H11.9c-1.7,0-3.2-1.2-3.3-2.9v-12.4c.1-2.1,2-3.7,4.1-3.6h5.7v-2.9c0-.9.8-1.5,1.6-1.5M24.9,20.4c1.1,0,2-.8,2-1.8h0c-.1-1.1-1.2-1.9-2.3-1.8-.9.1-1.7.8-1.8,1.8,0,1.1,1,1.9,2,1.8M15.1,20.4c1.1,0,2-.8,2-1.8h0c0-1.1-1-1.9-2-1.8-1,0-1.9.8-2,1.8,0,1.1,1,1.9,2,1.8M23.3,25.8h3.3v-1.4h-3.3v1.4M18.4,25.8h3.3v-1.4h-3.3v1.4M13.5,25.8h3.3v-1.4h-3.3v1.4M34.7,17.1c.8,0,1.6.6,1.6,1.5h0v5.8c0,.8-.8,1.5-1.6,1.4h-1.6v-8.7h1.6M7,17.1v8.7h-1.6c-.8,0-1.6-.6-1.6-1.5h0v-5.8c0-.9.8-1.5,1.6-1.5h1.6M20,6.1c-1.3,0-2.4,1-2.5,2.3v2h-4.8c-1.3,0-2.5.4-3.5,1.3-.9.8-1.5,2-1.5,3.2v1.3h-2.4c-.6,0-1.2.2-1.7.6-.5.4-.8,1-.8,1.7v5.8c0,1.3,1.2,2.4,2.5,2.3h2.4v.6c.1,2.2,2,3.9,4.1,3.8h16.3c2.2,0,4-1.6,4.1-3.8v-.6h2.4c.6,0,1.3-.2,1.7-.6.5-.4.8-1,.8-1.7v-5.8c0-1.3-1.2-2.4-2.5-2.3h-2.4v-1.3c-.1-2.6-2.3-4.6-4.9-4.5h-4.8v-2c0-1.3-1.2-2.4-2.5-2.3ZM24.9,19.5c-.6,0-1.1-.4-1.2-1,.1-.6.8-1.1,1.4-.9.5,0,.8.5.9.9,0,.6-.6,1-1.2,1ZM15.1,19.5c-.6,0-1.1-.4-1.2-1,0-.6.6-1,1.2-.9.6,0,1.1.4,1.2.9,0,.6-.6,1-1.2,1h0Z"/>
  </g>
</svg>